<?xml version="1.0" encoding="utf-8"?>
<!-- Generator: Adobe Illustrator 19.0.0, SVG Export Plug-In . SVG Version: 6.00 Build 0)  -->
<svg version="1.1" id="Слой_1" xmlns="http://www.w3.org/2000/svg" xmlns:xlink="http://www.w3.org/1999/xlink" x="0px" y="0px"
	 viewBox="0 0 219 29" style="enable-background:new 0 0 219 29;" xml:space="preserve">
<style type="text/css">
	.st0{fill-rule:evenodd;clip-rule:evenodd;fill:#19108B;}
</style>
<g>
	<path class="st0" d="M216.4,0h2.6v15.9h-2.6V0z"/>
	<path class="st0" d="M210.3,5.3h2.6v10.6h-2.6V5.3z"/>
	<path class="st0" d="M204.2,7.9h2.6v7.9h-2.6V7.9z"/>
	<path d="M7.4,18.5H3.3v-7.3H0V29h3.3v-7.3h4.2l6,7.3H17v-0.9l-6.6-8l6.6-8v-0.9h-3.5L7.4,18.5z"/>
	<path d="M20.7,11.2V29h16.2v-3.3H24v-4h10.4v-3.3H24v-4h12.9v-3.3H20.7z"/>
	<path d="M49.4,18.8l-5.9-7.6h-3.8l8.1,11.1V29H51v-6.6l8.1-11.1h-3.9L49.4,18.8z"/>
	<path d="M62.5,12.2c-0.7,0.7-1,1.5-1,2.4v10.9c0,1,0.3,1.8,1,2.4c0.7,0.7,1.5,1,2.4,1h10.8c0.9,0,1.7-0.3,2.4-1
		c0.7-0.7,1-1.5,1-2.4V14.7c0-1-0.3-1.8-1-2.4c-0.7-0.7-1.5-1-2.4-1H64.9C63.9,11.2,63.1,11.6,62.5,12.2z M64.7,25.6V14.7
		c0-0.1,0.1-0.2,0.2-0.2h10.8c0.1,0,0.1,0.1,0.1,0.2v10.9c0,0.1,0,0.2-0.1,0.2H64.9C64.8,25.7,64.7,25.7,64.7,25.6L64.7,25.6z"/>
	<path d="M83,29h3.2v-6.1l0.1,0l10.9,0c0.9,0,1.8-0.3,2.4-1c0.7-0.7,1-1.5,1-2.4v-4.8c0-0.9-0.3-1.7-1-2.4c-0.7-0.7-1.5-1-2.4-1H83
		V29z M97.2,19.6H86.4c-0.1,0-0.2-0.1-0.2-0.2v-4.8c0-0.1,0.1-0.2,0.2-0.2h10.8c0.1,0,0.2,0.1,0.2,0.2v4.8
		C97.3,19.6,97.3,19.6,97.2,19.6L97.2,19.6z"/>
	<path d="M102.7,14.5h7.2V29h3.3V14.5h7.2v-3.3h-17.6V14.5z"/>
	<path d="M126.6,29V11.2h-3.2V29H126.6z"/>
	<path d="M133.4,11.2h-3.5V29h3.2V16l6.7,8l6.7-8v13h3.3V11.2h-3.5l-6.4,7.7L133.4,11.2z"/>
	<path d="M157.1,29V11.2h-3.2V29H157.1z"/>
	<path d="M173.2,14.5l-12.9,11V29h17.6v-3.3H165l12.9-11v-3.6h-17.6v3.3H173.2z"/>
	<path d="M181.8,11.2V29h16.2v-3.3H185v-4h10.4v-3.3H185v-4h12.9v-3.3H181.8z"/>
</g>
</svg>
