<svg xmlns="http://www.w3.org/2000/svg" width="18" height="14" viewBox="0 0 18 14">
  <metadata><?xpacket begin="﻿" id="W5M0MpCehiHzreSzNTczkc9d"?>
<x:xmpmeta xmlns:x="adobe:ns:meta/" x:xmptk="Adobe XMP Core 5.6-c138 79.159824, 2016/09/14-01:09:01        ">
   <rdf:RDF xmlns:rdf="http://www.w3.org/1999/02/22-rdf-syntax-ns#">
      <rdf:Description rdf:about=""/>
   </rdf:RDF>
</x:xmpmeta>
                                                                                                    
                                                                                                    
                                                                                                    
                                                                                                    
                                                                                                    
                                                                                                    
                                                                                                    
                                                                                                    
                                                                                                    
                                                                                                    
                                                                                                    
                                                                                                    
                                                                                                    
                                                                                                    
                                                                                                    
                                                                                                    
                                                                                                    
                                                                                                    
                                                                                                    
                                                                                                    
                           
<?xpacket end="w"?></metadata>
<defs>
    <style>
      .cls-1 {
        fill: #0a630e;
        fill-rule: evenodd;
      }
    </style>
  </defs>
  <path id="Фигура_522_копия_3" data-name="Фигура 522 копия 3" class="cls-1" d="M537.767,1732.18l-0.6,1.8h-0.775l1.972-5.73h0.9l1.98,5.73h-0.8l-0.62-1.8h-2.057Zm1.9-.58-0.576-1.65c-0.121-.38-0.207-0.72-0.293-1.05h-0.026c-0.078.33-.172,0.69-0.284,1.04l-0.568,1.66h1.747Zm5.9-3.66v4.97c0,0.37.009,0.79,0.035,1.07h-0.68l-0.035-.72h-0.017a1.531,1.531,0,0,1-1.412.81,1.889,1.889,0,0,1-1.791-2.09,1.976,1.976,0,0,1,1.869-2.21,1.4,1.4,0,0,1,1.257.62h0.017v-2.45h0.757Zm-0.757,3.6a1.484,1.484,0,0,0-.035-0.33,1.113,1.113,0,0,0-1.093-.85,1.367,1.367,0,0,0-1.248,1.58,1.326,1.326,0,0,0,1.231,1.53,1.143,1.143,0,0,0,1.11-.9,1.236,1.236,0,0,0,.035-0.32v-0.71Zm1.643,6.47H535.538a3.526,3.526,0,0,1-3.544-3.5v-7.01a3.526,3.526,0,0,1,3.544-3.5h10.917a3.526,3.526,0,0,1,3.544,3.5v7.01A3.526,3.526,0,0,1,546.455,1738.01Zm-10.917-13.3a2.81,2.81,0,0,0-2.826,2.79v7.01a2.81,2.81,0,0,0,2.826,2.79h10.917a2.81,2.81,0,0,0,2.826-2.79v-7.01a2.81,2.81,0,0,0-2.826-2.79H535.538Z" transform="translate(-532 -1724)"/>
</svg>
