<svg xmlns="http://www.w3.org/2000/svg" width="20" height="35" viewBox="0 0 20 35">
  <metadata><?xpacket begin="﻿" id="W5M0MpCehiHzreSzNTczkc9d"?>
<x:xmpmeta xmlns:x="adobe:ns:meta/" x:xmptk="Adobe XMP Core 5.6-c138 79.159824, 2016/09/14-01:09:01        ">
   <rdf:RDF xmlns:rdf="http://www.w3.org/1999/02/22-rdf-syntax-ns#">
      <rdf:Description rdf:about=""/>
   </rdf:RDF>
</x:xmpmeta>
                                                                                                    
                                                                                                    
                                                                                                    
                                                                                                    
                                                                                                    
                                                                                                    
                                                                                                    
                                                                                                    
                                                                                                    
                                                                                                    
                                                                                                    
                                                                                                    
                                                                                                    
                                                                                                    
                                                                                                    
                                                                                                    
                                                                                                    
                                                                                                    
                                                                                                    
                                                                                                    
                           
<?xpacket end="w"?></metadata>
<defs>
    <style>
      .cls-1 {
        fill: #b2b2b2;
        fill-rule: evenodd;
      }
    </style>
  </defs>
  <path class="cls-1" d="M42.5,379a2.506,2.506,0,0,0-2.5,2.5v30a2.506,2.506,0,0,0,2.5,2.5h15a2.506,2.506,0,0,0,2.5-2.5v-30a2.506,2.506,0,0,0-2.5-2.5h-15Zm0,1h15a1.486,1.486,0,0,1,1.5,1.5V384H41v-2.5A1.486,1.486,0,0,1,42.5,380Zm5.906,1.5a0.5,0.5,0,1,0,.094,1h3a0.5,0.5,0,0,0,.014-1H48.5A0.49,0.49,0,0,0,48.406,381.5ZM41,385H59v23H41V385Zm1.906,1.5a0.5,0.5,0,0,0-.406.5v3a0.5,0.5,0,0,0,.5.5h3a0.5,0.5,0,0,0,.5-0.5v-3a0.5,0.5,0,0,0-.5-0.5H43A0.49,0.49,0,0,0,42.906,386.5Zm5.5,0A0.5,0.5,0,0,0,48,387v3a0.5,0.5,0,0,0,.5.5h3A0.5,0.5,0,0,0,52,390v-3a0.5,0.5,0,0,0-.5-0.5h-3A0.49,0.49,0,0,0,48.406,386.5Zm5.563,0a0.5,0.5,0,0,0-.469.5v3a0.5,0.5,0,0,0,.5.5h3a0.5,0.5,0,0,0,.5-0.5v-3a0.5,0.5,0,0,0-.406-0.5,0.49,0.49,0,0,0-.094,0H53.969Zm-10.469,1h2v2h-2v-2Zm5.5,0h2v2H49v-2Zm5.5,0h2v2h-2v-2ZM42.906,392a0.5,0.5,0,0,0-.406.5v3a0.5,0.5,0,0,0,.5.5h3a0.5,0.5,0,0,0,.5-0.5v-3A0.5,0.5,0,0,0,46,392H43A0.49,0.49,0,0,0,42.906,392Zm5.594,0a0.5,0.5,0,1,0,.5.5A0.5,0.5,0,0,0,48.5,392Zm1.5,0a0.5,0.5,0,1,0,.5.5A0.5,0.5,0,0,0,50,392Zm1.5,0a0.5,0.5,0,1,0,.5.5A0.5,0.5,0,0,0,51.5,392Zm-8,1h2v2h-2v-2Zm5,0.5a0.5,0.5,0,1,0,.5.5A0.5,0.5,0,0,0,48.5,393.5Zm3,0a0.5,0.5,0,1,0,.5.5A0.5,0.5,0,0,0,51.5,393.5Zm-3,1.5a0.5,0.5,0,1,0,.5.5A0.5,0.5,0,0,0,48.5,395Zm1.5,0a0.5,0.5,0,1,0,.5.5A0.5,0.5,0,0,0,50,395Zm1.5,0a0.5,0.5,0,1,0,.5.5A0.5,0.5,0,0,0,51.5,395ZM41,409H59v2.5a1.486,1.486,0,0,1-1.5,1.5h-15a1.486,1.486,0,0,1-1.5-1.5V409Zm9,1a1,1,0,1,0,1,1A1,1,0,0,0,50,410Z" transform="translate(-40 -379)"/>
</svg>
