<svg xmlns="http://www.w3.org/2000/svg" width="15" height="15" viewBox="0 0 15 15">
  <metadata><?xpacket begin="﻿" id="W5M0MpCehiHzreSzNTczkc9d"?>
<x:xmpmeta xmlns:x="adobe:ns:meta/" x:xmptk="Adobe XMP Core 5.6-c138 79.159824, 2016/09/14-01:09:01        ">
   <rdf:RDF xmlns:rdf="http://www.w3.org/1999/02/22-rdf-syntax-ns#">
      <rdf:Description rdf:about=""/>
   </rdf:RDF>
</x:xmpmeta>
                                                                                                    
                                                                                                    
                                                                                                    
                                                                                                    
                                                                                                    
                                                                                                    
                                                                                                    
                                                                                                    
                                                                                                    
                                                                                                    
                                                                                                    
                                                                                                    
                                                                                                    
                                                                                                    
                                                                                                    
                                                                                                    
                                                                                                    
                                                                                                    
                                                                                                    
                                                                                                    
                           
<?xpacket end="w"?></metadata>
<defs>
    <style>
      .cls-1 {
        fill-rule: evenodd;
        opacity: 0.2;
      }
    </style>
  </defs>
  <path id="Фигура_35_копия" data-name="Фигура 35 копия" class="cls-1" d="M420.5,4745a7.5,7.5,0,1,0,7.5,7.5A7.5,7.5,0,0,0,420.5,4745Zm0,0.83a6.67,6.67,0,1,1-6.667,6.67A6.661,6.661,0,0,1,420.5,4745.83Zm0,2.5a2.535,2.535,0,0,0-2.5,2.5,0.428,0.428,0,0,0,.411.43,0.418,0.418,0,0,0,.422-0.41v-0.02a1.667,1.667,0,0,1,3.334,0,1.988,1.988,0,0,1-.9,1.57,5.494,5.494,0,0,0-.774.78,1.95,1.95,0,0,0-.411,1.18v0.22a0.428,0.428,0,0,0,.411.43,0.419,0.419,0,0,0,.423-0.41v-0.24a1.067,1.067,0,0,1,.241-0.68,6.283,6.283,0,0,1,.67-0.67,2.877,2.877,0,0,0,1.172-2.18h0A2.532,2.532,0,0,0,420.5,4748.33Zm0,7.3a0.62,0.62,0,1,0,.625.62A0.618,0.618,0,0,0,420.5,4755.63Z" transform="translate(-413 -4745)"/>
</svg>
