<svg xmlns="http://www.w3.org/2000/svg" width="12" height="16" viewBox="0 0 12 16">
  <metadata><?xpacket begin="﻿" id="W5M0MpCehiHzreSzNTczkc9d"?>
<x:xmpmeta xmlns:x="adobe:ns:meta/" x:xmptk="Adobe XMP Core 5.6-c138 79.159824, 2016/09/14-01:09:01        ">
   <rdf:RDF xmlns:rdf="http://www.w3.org/1999/02/22-rdf-syntax-ns#">
      <rdf:Description rdf:about=""/>
   </rdf:RDF>
</x:xmpmeta>
                                                                                                    
                                                                                                    
                                                                                                    
                                                                                                    
                                                                                                    
                                                                                                    
                                                                                                    
                                                                                                    
                                                                                                    
                                                                                                    
                                                                                                    
                                                                                                    
                                                                                                    
                                                                                                    
                                                                                                    
                                                                                                    
                                                                                                    
                                                                                                    
                                                                                                    
                                                                                                    
                           
<?xpacket end="w"?></metadata>
<defs>
    <style>
      .cls-1 {
        fill-rule: evenodd;
        opacity: 0.6;
      }
    </style>
  </defs>
  <path id="Фигура_25_copy" data-name="Фигура 25 copy" class="cls-1" d="M1232.71,634.117h0.01a0.342,0.342,0,0,0,.34-0.351l-0.17-9.782a0.346,0.346,0,0,0-.36-0.338,0.35,0.35,0,0,0-.35.35l0.18,9.782A0.346,0.346,0,0,0,1232.71,634.117Zm2.58,0a0.346,0.346,0,0,0,.35-0.339l0.18-9.782a0.351,0.351,0,0,0-.35-0.351h0a0.355,0.355,0,0,0-.36.339l-0.17,9.782a0.343,0.343,0,0,0,.34.351h0.01Zm3.47-10.471a0.348,0.348,0,0,0-.37.333l-0.35,10.716a0.622,0.622,0,0,1-.63.616h-6.82a0.624,0.624,0,0,1-.63-0.627l-0.35-10.7a0.349,0.349,0,0,0-.35-0.334h-0.01a0.356,0.356,0,0,0-.35.356l0.36,10.694a1.322,1.322,0,0,0,1.33,1.3h6.82a1.32,1.32,0,0,0,1.33-1.294L1239.1,624A0.353,0.353,0,0,0,1238.76,623.646Zm0.89-1.723h-11.3a0.345,0.345,0,1,0,0,.689h11.3A0.345,0.345,0,1,0,1239.65,621.923Zm-8.39-.545a0.343,0.343,0,0,0,.35-0.344,0.352,0.352,0,0,1,.36-0.345h4.06a0.352,0.352,0,0,1,.36.345,0.343,0.343,0,0,0,.35.344,0.349,0.349,0,0,0,.35-0.344,1.045,1.045,0,0,0-1.06-1.034h-4.06a1.045,1.045,0,0,0-1.06,1.034A0.349,0.349,0,0,0,1231.26,621.378Z" transform="translate(-1228 -620)"/>
</svg>
