<?xml version="1.0" encoding="utf-8"?>
<!-- Generator: Adobe Illustrator 19.0.0, SVG Export Plug-In . SVG Version: 6.00 Build 0)  -->
<svg version="1.1" id="Слой_1" xmlns="http://www.w3.org/2000/svg" xmlns:xlink="http://www.w3.org/1999/xlink" x="0px" y="0px"
	 viewBox="0 0 198 204" style="enable-background:new 0 0 198 204;" xml:space="preserve">
<style type="text/css">
	.st0{fill:#E8E7F3;}
</style>
<g id="XMLID_249_">
	<path id="XMLID_266_" class="st0" d="M97.9,120.5c-4.6-5.7-10.9-9.8-17.6-11.5c-6.6-1.6-12.8-0.6-17.6,2.8
		c-9.6,7.1-9.6,22.8,0,34.6c4.6,5.7,10.9,9.8,17.4,11.4c5.6,1.4,11.2,0.9,15.5-1.5c0.6-0.5,1.4-0.8,2.1-1.2c0.6-0.5,1.3-0.9,1.8-1.5
		C107.5,145.8,106.8,131.6,97.9,120.5z M97.7,151.8c-0.5,0.5-1,1-1.6,1.3c-0.6,0.5-1.1,0.8-1.8,1.1c-4,2.2-9,2.7-14.1,1.4
		c-5.9-1.5-11.7-5.3-15.8-10.4c-8.8-10.9-8.8-24.9,0-31.3c4.2-3.1,9.9-4,15.8-2.6c5.9,1.5,11.7,5.3,15.8,10.4
		C104.3,131.7,104.9,144.7,97.7,151.8z"/>
	<path id="XMLID_261_" class="st0" d="M106,158.7c0.3-0.2,0.6-0.6,0.8-0.9c0,0,0,0,0.2,0l55,13.6c19.8,4.9,36-7.1,36-26.7
		s-16.2-39.5-36-44.4c-5-1.2-9.6-1.4-14.1-0.6c-1-18.9-16.6-37.8-35.9-42.5C95.1,53,80.5,60.9,77,76.3c-4.8-5.1-11-9-17.4-10.6
		c-14.7-3.6-26.7,4.8-27.4,19l-4.6-1.1c-13-3.2-24.3,3.2-27.1,15.1l-0.2,1.1C0,101.1,0,102.7,0,104.3c0,15,12.3,30.2,27.5,34
		l26.2,6.5c1.1,1.9,2.4,3.8,3.8,5.5c6.2,7.7,14.4,12.9,22.7,14.9c6.7,1.7,13.4,1.3,19.2-1.6l26.7,37.9c0.8,1.1,1.9,2.1,3.2,2.4
		l0.2,0c1.1,0.3,2.4,0.1,3.2-0.5l5.1-3.8c1-0.7,1.3-1.7,1.3-3c0-1.3-0.6-2.5-1.6-3.6L106,158.7z M27.5,135.9
		c-13.9-3.4-25.3-17.5-25.3-31.2c0-1.4,0.2-2.8,0.3-4l0.2-0.8c2.4-10.9,12.8-16.7,24.6-13.8l5.4,1.3c0.2,0,0.3,0.1,0.5,0.1
		c0.6,0.2,1.1-0.2,1.1-0.8c0-13.6,11.2-21.9,25-18.5c9.9,2.5,18.9,10.4,22.9,20.3c0.3,0.7,1,1,1.6,1c0.6-0.2,0.8-0.8,0.6-1.4
		c-1.4-3.4-3.2-6.5-5.6-9.4c2.9-15.1,16.6-23.2,33.1-19.2c18.6,4.6,33.6,23.2,33.6,41.5c0,3.5-0.6,7-1.6,10
		c-0.2,0.6,0.2,1.3,0.8,1.6c0.2,0,0.3,0.1,0.3,0.1c0.5,0.1,1-0.1,1.1-0.5c1.1-3,1.8-6.5,1.8-10c4.5-0.9,9.1-0.7,14.1,0.5
		c18.6,4.6,33.6,23.2,33.6,41.5c0,18.3-15,29.5-33.6,24.9l-53.9-13.3c0.6-1.1,1.3-2.2,1.9-3.5c1.4-3.3,2.2-7,2.2-11.1
		c0-1.6-0.2-3-0.3-4.5c-0.3-2.3-0.8-4.6-1.6-6.9c-1.6-4.7-4.2-9.2-7.4-13.2c-6.1-7.5-14.1-12.8-22.7-14.9
		c-8.6-2.1-16.6-0.8-22.7,3.7c-3.4,2.5-5.8,5.7-7.4,9.6c-0.8,1.9-1.3,4-1.6,6.1c-0.2,1.4-0.3,2.8-0.3,4.2l0,0c0,4,0.6,8.1,2.2,12.2
		c0.5,1.5,1.1,3,1.9,4.4l-25-6.2V135.9z M59.3,149.1c-2.9-3.6-5.1-7.6-6.7-11.8c-1.4-3.8-2.1-7.6-2.1-11.3c0-1.4,0.2-2.6,0.3-3.9
		c0.3-2,0.8-3.9,1.6-5.6c1.4-3.6,3.8-6.6,6.9-8.9c5.6-4.1,13.1-5.3,21-3.4c8,2,15.4,6.8,21,13.7c3,3.8,5.4,8,6.9,12.3
		c0.8,2.1,1.3,4.3,1.6,6.4c0.2,1.3,0.3,2.8,0.3,4c0,3.8-0.6,7.3-2.1,10.2c-1.1,2.6-2.6,4.7-4.5,6.6c-0.5,0.5-1,0.9-1.6,1.3
		c-0.2,0.1-0.3,0.4-0.6,0.5c-0.3,0.2-0.6,0.3-1,0.6c-0.5,0.4-1,0.7-1.6,1C87,167.5,70,162.3,59.3,149.1z M136.1,197.4l-5.1,3.8
		c-0.5,0.4-1,0.4-1.6,0.2c-0.6-0.2-1.1-0.6-1.6-1.2l-26.6-37.7l0.2-0.1c0.5-0.4,1-0.7,1.6-1c0.5-0.4,1-0.7,1.4-1.2l0.2-0.1
		l31.5,34.2c0.5,0.4,0.8,1.1,0.8,1.8C136.9,196.7,136.6,197.1,136.1,197.4z"/>
	<path id="XMLID_250_" class="st0" d="M32.7,54.2L32.7,54.2c0.2,0,0.2,0,0.2,0c7.2,1.8,13.9,0.8,19-3c2.9-2.1,5-4.9,6.4-8.2
		c0,0,0-0.2,0.2-0.1c1-2.6,1.6-5.5,1.6-8.5C60.2,19.7,48,4.6,33.1,0.9l0,0l-0.2,0c-7.2-1.8-13.9-0.8-19,3c-5.1,3.8-8,9.7-8,16.8
		c0,7.1,2.7,14.6,7.8,20.9C18.6,47.9,25.4,52.4,32.7,54.2z M10.1,31.5L21,34.2c1.1,6.3,3,11.7,5.8,15.3C19.2,46,13.1,39.2,10.1,31.5
		z M57.5,33.8c0,2.5-0.5,4.9-1.3,7.1L44.7,38c0.3-2.3,0.5-4.8,0.5-7.3c0-2.5-0.2-5.1-0.5-7.5L56.2,26C57.1,28.6,57.5,31.2,57.5,33.8
		z M43.1,30.2c0,2.5-0.2,5-0.5,7.3l-19.4-4.9c-0.3-2.4-0.5-4.9-0.5-7.5c0-2.5,0.2-5,0.5-7.3l19.4,4.9C42.9,25.1,43.1,27.7,43.1,30.2
		z M20.6,31.9L9.1,29.1C8.3,26.5,8,23.9,8,21.4c0-2.5,0.5-4.9,1.3-7.1l11.5,2.8c-0.3,2.3-0.5,4.8-0.5,7.3
		C20.2,26.9,20.3,29.5,20.6,31.9z M32.7,52c-3.7-0.9-7.7-7.6-9.3-17l18.7,4.8c-0.6,2.7-1.4,5.2-2.4,7.3C37.8,50.7,35.2,52.6,32.7,52
		L32.7,52z M38.6,52.6c1.1-1,2.2-2.4,3.2-4.3c1.1-2.3,2.1-5,2.7-8.2l10.9,2.7C52.3,49.1,46.1,52.8,38.6,52.6z M55.5,23.6L44.7,21
		c-0.6-3.5-1.4-6.5-2.6-9.5c-1-2.3-1.9-4.3-3.2-5.8C46.4,9.2,52.5,15.9,55.5,23.6z M33,3.2c2.6,0.6,5,3.8,6.9,8.5
		c1,2.6,1.8,5.3,2.2,8.5l-18.6-4.7c0.6-2.7,1.4-5.2,2.4-7.3C27.9,4.5,30.4,2.6,33,3.2L33,3.2z M27,2.4c-1.1,1-2.2,2.4-3.2,4.3
		c-1.3,2.4-2.1,5.2-2.7,8.2l-10.9-2.7C13.3,5.9,19.5,2.4,27,2.4z"/>
</g>
</svg>
