<svg xmlns="http://www.w3.org/2000/svg" width="10.812" height="10" viewBox="0 0 10.812 10">
  <metadata><?xpacket begin="﻿" id="W5M0MpCehiHzreSzNTczkc9d"?>
<x:xmpmeta xmlns:x="adobe:ns:meta/" x:xmptk="Adobe XMP Core 5.6-c138 79.159824, 2016/09/14-01:09:01        ">
   <rdf:RDF xmlns:rdf="http://www.w3.org/1999/02/22-rdf-syntax-ns#">
      <rdf:Description rdf:about=""/>
   </rdf:RDF>
</x:xmpmeta>
                                                                                                    
                                                                                                    
                                                                                                    
                                                                                                    
                                                                                                    
                                                                                                    
                                                                                                    
                                                                                                    
                                                                                                    
                                                                                                    
                                                                                                    
                                                                                                    
                                                                                                    
                                                                                                    
                                                                                                    
                                                                                                    
                                                                                                    
                                                                                                    
                                                                                                    
                                                                                                    
                           
<?xpacket end="w"?></metadata>
<defs>
    <style>
      .cls-1 {
        fill: #fff;
        stroke: #cdcdcd;
        stroke-width: 1px;
        fill-rule: evenodd;
      }
    </style>
  </defs>
  <path id="Фигура_26_копия" data-name="Фигура 26 копия" class="cls-1" d="M477.766,743.87a0.635,0.635,0,0,1-1-.7l0.407-2.276a0.256,0.256,0,0,0-.061-0.181l-1.725-1.611c-0.506-.473-0.316-1.033.383-1.131l2.384-.332a0.266,0.266,0,0,0,.16-0.111l1.066-2.071a0.65,0.65,0,0,1,1.24,0l1.066,2.071a0.272,0.272,0,0,0,.161.111l2.384,0.332a0.613,0.613,0,0,1,.383,1.131l-1.725,1.611a0.251,0.251,0,0,0-.061.181l0.407,2.276a0.635,0.635,0,0,1-1,.7L480.1,742.8a0.284,0.284,0,0,0-.2,0Z" transform="translate(-474.594 -734.5)"/>
</svg>
