<svg xmlns="http://www.w3.org/2000/svg" width="9.781" height="9" viewBox="0 0 9.781 9">
  <metadata><?xpacket begin="﻿" id="W5M0MpCehiHzreSzNTczkc9d"?>
<x:xmpmeta xmlns:x="adobe:ns:meta/" x:xmptk="Adobe XMP Core 5.6-c138 79.159824, 2016/09/14-01:09:01        ">
   <rdf:RDF xmlns:rdf="http://www.w3.org/1999/02/22-rdf-syntax-ns#">
      <rdf:Description rdf:about=""/>
   </rdf:RDF>
</x:xmpmeta>
                                                                                                    
                                                                                                    
                                                                                                    
                                                                                                    
                                                                                                    
                                                                                                    
                                                                                                    
                                                                                                    
                                                                                                    
                                                                                                    
                                                                                                    
                                                                                                    
                                                                                                    
                                                                                                    
                                                                                                    
                                                                                                    
                                                                                                    
                                                                                                    
                                                                                                    
                                                                                                    
                           
<?xpacket end="w"?></metadata>
<defs>
    <style>
      .cls-1 {
        fill: #efca1e;
        fill-rule: evenodd;
      }
    </style>
  </defs>
  <path id="Фигура_26" data-name="Фигура 26" class="cls-1" d="M464.717,743.87a0.635,0.635,0,0,1-1-.7l0.408-2.276a0.252,0.252,0,0,0-.062-0.181l-1.725-1.611a0.613,0.613,0,0,1,.383-1.131l2.384-.332a0.269,0.269,0,0,0,.161-0.111l1.066-2.071a0.65,0.65,0,0,1,1.24,0l1.066,2.071a0.272,0.272,0,0,0,.161.111l2.384,0.332a0.613,0.613,0,0,1,.383,1.131l-1.725,1.611a0.252,0.252,0,0,0-.062.181l0.408,2.276a0.635,0.635,0,0,1-1,.7l-2.133-1.074a0.281,0.281,0,0,0-.2,0Z" transform="translate(-462.063 -735)"/>
</svg>
