<svg xmlns="http://www.w3.org/2000/svg" width="16" height="16" viewBox="0 0 16 16">
  <metadata><?xpacket begin="﻿" id="W5M0MpCehiHzreSzNTczkc9d"?>
<x:xmpmeta xmlns:x="adobe:ns:meta/" x:xmptk="Adobe XMP Core 5.6-c138 79.159824, 2016/09/14-01:09:01        ">
   <rdf:RDF xmlns:rdf="http://www.w3.org/1999/02/22-rdf-syntax-ns#">
      <rdf:Description rdf:about=""/>
   </rdf:RDF>
</x:xmpmeta>
                                                                                                    
                                                                                                    
                                                                                                    
                                                                                                    
                                                                                                    
                                                                                                    
                                                                                                    
                                                                                                    
                                                                                                    
                                                                                                    
                                                                                                    
                                                                                                    
                                                                                                    
                                                                                                    
                                                                                                    
                                                                                                    
                                                                                                    
                                                                                                    
                                                                                                    
                                                                                                    
                           
<?xpacket end="w"?></metadata>
<defs>
    <style>
      .cls-1 {
        fill: #19108b;
        fill-rule: evenodd;
      }
    </style>
  </defs>
  <path class="cls-1" d="M337,335a8,8,0,1,0,8,8A8.01,8.01,0,0,0,337,335Zm3.556,8a9.475,9.475,0,0,1-.657,3.464,10.034,10.034,0,0,0-2.605-.421v-3.253h3.256C340.554,342.858,340.558,342.928,340.558,343Zm-7.107-.21h3.257v3.247a10.042,10.042,0,0,0-2.607.422,9.446,9.446,0,0,1-.656-3.458C333.445,342.928,333.45,342.858,333.451,342.788Zm0.652-3.253a10.027,10.027,0,0,0,2.605.421V342.2h-3.225A9.413,9.413,0,0,1,334.1,339.535Zm-1.21,2.665h-3.262a7.376,7.376,0,0,1,1.723-4,9.494,9.494,0,0,0,2.192,1.144A10,10,0,0,0,332.893,342.2Zm4.4-6.208a8.212,8.212,0,0,1,2.37,3,9.516,9.516,0,0,1-2.37.377v-3.376Zm-0.588,3.376a9.509,9.509,0,0,1-2.37-.377,8.212,8.212,0,0,1,2.37-3v3.376Zm0,7.261v3.376a8.215,8.215,0,0,1-2.37-3A9.455,9.455,0,0,1,336.708,346.629Zm0.588,0a9.47,9.47,0,0,1,2.37.376,8.215,8.215,0,0,1-2.37,3v-3.376Zm0-4.429v-2.244a10.068,10.068,0,0,0,2.605-.42,9.406,9.406,0,0,1,.62,2.664H337.3Zm3.161-2.852a9.476,9.476,0,0,0,2.193-1.142,7.375,7.375,0,0,1,1.722,3.994H341.11A9.961,9.961,0,0,0,340.457,339.348Zm1.791-1.581a8.859,8.859,0,0,1-2.021,1.041,8.862,8.862,0,0,0-2.444-3.178A7.4,7.4,0,0,1,342.248,337.767Zm-6.027-2.138a8.865,8.865,0,0,0-2.445,3.179,8.859,8.859,0,0,1-2.021-1.041A7.408,7.408,0,0,1,336.221,335.629Zm-6.629,7.159h3.272c0,0.07-.006.14-0.006,0.21a10.038,10.038,0,0,0,.685,3.644,9.486,9.486,0,0,0-2.193,1.145A7.375,7.375,0,0,1,329.587,343C329.587,342.928,329.59,342.858,329.592,342.788Zm2.164,5.442a8.9,8.9,0,0,1,2.021-1.041,8.842,8.842,0,0,0,2.444,3.178A7.4,7.4,0,0,1,331.756,348.23Zm6.027,2.137a8.837,8.837,0,0,0,2.444-3.179,8.9,8.9,0,0,1,2.021,1.041A7.4,7.4,0,0,1,337.783,350.367Zm4.866-2.575a9.472,9.472,0,0,0-2.191-1.145,10.024,10.024,0,0,0,.688-3.649c0-.071,0-0.14-0.006-0.211h3.271c0,0.07,0,.14,0,0.211A7.374,7.374,0,0,1,342.649,347.792Z" transform="translate(-329 -335)"/>
</svg>
