<svg xmlns="http://www.w3.org/2000/svg" width="25" height="25" viewBox="0 0 25 25">
  <metadata><?xpacket begin="﻿" id="W5M0MpCehiHzreSzNTczkc9d"?>
<x:xmpmeta xmlns:x="adobe:ns:meta/" x:xmptk="Adobe XMP Core 5.6-c138 79.159824, 2016/09/14-01:09:01        ">
   <rdf:RDF xmlns:rdf="http://www.w3.org/1999/02/22-rdf-syntax-ns#">
      <rdf:Description rdf:about=""/>
   </rdf:RDF>
</x:xmpmeta>
                                                                                                    
                                                                                                    
                                                                                                    
                                                                                                    
                                                                                                    
                                                                                                    
                                                                                                    
                                                                                                    
                                                                                                    
                                                                                                    
                                                                                                    
                                                                                                    
                                                                                                    
                                                                                                    
                                                                                                    
                                                                                                    
                                                                                                    
                                                                                                    
                                                                                                    
                                                                                                    
                           
<?xpacket end="w"?></metadata>
<defs>
    <style>
      .cls-1 {
        fill: #fff;
        fill-rule: evenodd;
      }
    </style>
  </defs>
  <path class="cls-1" d="M587.476,241.99h-7.338c-3.357,0-6.518,2.474-6.518,5.566a5.466,5.466,0,0,0,5.7,5.616c0.238,0,.469-0.056.7-0.074a3.2,3.2,0,0,0-.378,1.442,3.09,3.09,0,0,0,1.016,2.162c-0.427,0-.844.006-1.3,0.006-4.158,0-7.359,2.78-7.359,5.663,0,2.839,3.509,4.617,7.668,4.617,4.741,0,7.361-2.827,7.361-5.666a5.569,5.569,0,0,0-2.618-5.113c-0.678-.5-1.971-1.725-1.971-2.445,0-.843.229-1.258,1.438-2.25a4.939,4.939,0,0,0,2.114-3.889c0-1.975-.809-4.387-2.384-4.387h2.679Zm-2.463,18.84a3.848,3.848,0,0,1,.092.811c0,2.295-1.411,4.088-5.453,4.088-2.875,0-4.95-1.91-4.95-4.2,0-2.248,2.575-4.122,5.452-4.087a6.083,6.083,0,0,1,1.862.31C583.576,258.889,584.7,259.533,585.013,260.83Zm-4.605-8.56c-1.929-.059-3.764-2.266-4.1-4.924s0.962-4.7,2.891-4.639,3.764,2.2,4.1,4.858S582.338,252.33,580.408,252.27Zm13.021-.29v-3.749h-2.381v3.749h-3.572v2.5h3.572v3.749h2.381V254.48H597v-2.5h-3.571Z" transform="translate(-572 -242)"/>
</svg>
