<svg xmlns="http://www.w3.org/2000/svg" width="33" height="31" viewBox="0 0 33 31">
  <metadata><?xpacket begin="﻿" id="W5M0MpCehiHzreSzNTczkc9d"?>
<x:xmpmeta xmlns:x="adobe:ns:meta/" x:xmptk="Adobe XMP Core 5.6-c138 79.159824, 2016/09/14-01:09:01        ">
   <rdf:RDF xmlns:rdf="http://www.w3.org/1999/02/22-rdf-syntax-ns#">
      <rdf:Description rdf:about=""/>
   </rdf:RDF>
</x:xmpmeta>
                                                                                                    
                                                                                                    
                                                                                                    
                                                                                                    
                                                                                                    
                                                                                                    
                                                                                                    
                                                                                                    
                                                                                                    
                                                                                                    
                                                                                                    
                                                                                                    
                                                                                                    
                                                                                                    
                                                                                                    
                                                                                                    
                                                                                                    
                                                                                                    
                                                                                                    
                                                                                                    
                           
<?xpacket end="w"?></metadata>
<defs>
    <style>
      .cls-1 {
        fill: #b2b2b2;
        fill-rule: evenodd;
      }
    </style>
  </defs>
  <path class="cls-1" d="M63.248,265h-27.5A2.731,2.731,0,0,0,33,267.7v22.966a2.733,2.733,0,0,0,2.756,2.7H40.57a0.835,0.835,0,1,0,0-1.669H35.756a1.045,1.045,0,0,1-1.055-1.035V272.874H64.3v17.789a1.045,1.045,0,0,1-1.055,1.035H58.822a0.835,0.835,0,1,0,0,1.669h4.423a2.734,2.734,0,0,0,2.756-2.7V267.7A2.731,2.731,0,0,0,63.248,265Zm1.051,6.206H34.7v-3.5a1.041,1.041,0,0,1,1.051-1.031h27.5A1.042,1.042,0,0,1,64.3,267.7v3.5Zm-23.678-2.253a0.851,0.851,0,1,1-.851-0.835A0.842,0.842,0,0,1,40.621,268.952ZM49.554,286.6a6.087,6.087,0,0,0,1.228-2.9H50.8a0.835,0.835,0,1,0,0-1.669h-0.02a6.253,6.253,0,0,0-5.392-5.3v-0.019a0.851,0.851,0,0,0-1.7,0v0.019a6.254,6.254,0,0,0-5.392,5.291H38.273a0.835,0.835,0,1,0,0,1.669h0.02a6.254,6.254,0,0,0,5.4,5.295v0.02a0.851,0.851,0,0,0,1.7,0v-0.02a6.346,6.346,0,0,0,2.96-1.2l2.851,2.78L49.8,291.945a0.825,0.825,0,0,0,0,1.182,0.864,0.864,0,0,0,1.2,0l1.4-1.379,1.47,1.439-1.405,1.378a0.825,0.825,0,0,0,0,1.182,0.864,0.864,0,0,0,1.2,0l2.007-1.969a0.824,0.824,0,0,0,0-1.181h0Zm-0.364-2.9H49.065a4.574,4.574,0,0,1-3.674,3.605v0.123a0.851,0.851,0,0,0-1.7,0v-0.123a4.574,4.574,0,0,1-3.674-3.605H39.889a0.835,0.835,0,1,0,0-1.669h0.126a4.576,4.576,0,0,1,3.674-3.606V278.3a0.851,0.851,0,0,0,1.7,0v0.123a4.574,4.574,0,0,1,3.674,3.6H49.19a0.835,0.835,0,1,0,0,1.669v0Zm12.217-6.747a0.843,0.843,0,0,1-.85.835H53.11a0.835,0.835,0,1,1,0-1.669h7.43a0.844,0.844,0,0,1,.867.818S61.407,276.948,61.407,276.953Zm0,4.257a0.843,0.843,0,0,1-.85.834H55.382a0.835,0.835,0,1,1,0-1.669H60.54a0.844,0.844,0,0,1,.867.818S61.407,281.2,61.407,281.21Zm0,4.256a0.843,0.843,0,0,1-.85.834H55.382a0.835,0.835,0,1,1,0-1.669H60.54a0.844,0.844,0,0,1,.867.818S61.407,285.46,61.407,285.466ZM43.318,268.952a0.851,0.851,0,1,1-.85-0.835A0.842,0.842,0,0,1,43.318,268.952Zm-5.385,0a0.851,0.851,0,1,1-.85-0.835A0.842,0.842,0,0,1,37.933,268.952Z" transform="translate(-33 -265)"/>
</svg>
