<?xml version="1.0" encoding="utf-8"?>
<!-- Generator: Adobe Illustrator 19.0.0, SVG Export Plug-In . SVG Version: 6.00 Build 0)  -->
<svg version="1.1" id="Слой_1" xmlns="http://www.w3.org/2000/svg" xmlns:xlink="http://www.w3.org/1999/xlink" x="0px" y="0px"
	 viewBox="0 0 209 220" style="enable-background:new 0 0 209 220;" xml:space="preserve">
<style type="text/css">
	.st0{fill:#E8E7F3;}
</style>
<g>
	<path class="st0" d="M17.4,56.1l51.7,15.7c0.8,0.3,1.5-0.2,1.5-1c0-0.8-0.6-1.7-1.5-1.9L17.4,53.1c-0.8-0.3-1.5,0.2-1.5,1
		C15.7,54.9,16.5,55.8,17.4,56.1z"/>
	<path class="st0" d="M17.4,114l58,17.6c0.8,0.3,1.5-0.2,1.5-1c0-0.8-0.6-1.7-1.5-1.9l-58-17.6c-0.8-0.3-1.5,0.2-1.5,1
		C15.7,112.7,16.5,113.8,17.4,114z"/>
	<path class="st0" d="M17.4,99.4l51.7,15.7c0.8,0.3,1.5-0.2,1.5-1c0-0.8-0.6-1.7-1.5-1.9L17.4,96.4c-0.8-0.3-1.5,0.2-1.5,1
		C15.9,98.3,16.5,99.1,17.4,99.4z"/>
	<path class="st0" d="M17.4,128.5l44,13.4c0.8,0.3,1.5-0.2,1.5-1c0-0.8-0.6-1.7-1.5-1.9l-44-13.4c-0.8-0.3-1.5,0.2-1.5,1
		C15.9,127.4,16.5,128.2,17.4,128.5z"/>
	<path class="st0" d="M17.4,142.9l60.3,18.3c0.8,0.3,1.5-0.2,1.5-1c0-0.8-0.6-1.7-1.5-1.9L17.4,140c-0.8-0.3-1.5,0.2-1.5,1
		C15.7,141.8,16.5,142.6,17.4,142.9z"/>
	<path class="st0" d="M15.7,155.3c0,0.8,0.6,1.7,1.5,1.9l86.5,26.3c0.8,0.3,1.5-0.2,1.5-1c0-0.8-0.6-1.7-1.5-1.9l-86.3-26.2
		C16.5,154.1,15.7,154.5,15.7,155.3z"/>
	<path class="st0" d="M90,190.9l-72.7-22.1c-0.8-0.3-1.5,0.2-1.5,1c0,0.8,0.6,1.7,1.5,1.9L90,193.8c0.8,0.3,1.5-0.2,1.5-1
		C91.5,192,90.9,191.2,90,190.9z"/>
	<path class="st0" d="M17.4,70.5l42.3,12.9c0.8,0.3,1.5-0.2,1.5-1c0-0.8-0.6-1.7-1.5-1.9L17.4,67.6c-0.8-0.3-1.5,0.2-1.5,1
		C15.7,69.4,16.5,70.2,17.4,70.5z"/>
	<path class="st0" d="M17.4,84.9l17.2,5.2c0.8,0.3,1.5-0.2,1.5-1c0-0.8-0.6-1.7-1.5-1.9L17.4,82c-0.8-0.3-1.5,0.2-1.5,1
		C15.7,83.8,16.5,84.7,17.4,84.9z"/>
	<path class="st0" d="M44.8,90.3c-0.8-0.3-1.5,0.2-1.5,1c0,0.8,0.6,1.7,1.5,1.9l21.8,6.6c0.8,0.3,1.5-0.2,1.5-1
		c0-0.8-0.6-1.7-1.5-1.9L44.8,90.3z"/>
	<path class="st0" d="M103.9,24.6l51.7,15.7c0.8,0.3,1.5-0.2,1.5-1c0-0.8-0.6-1.7-1.5-1.9l-51.7-15.7c-0.8-0.3-1.5,0.2-1.5,1
		S103,24.4,103.9,24.6z"/>
	<path class="st0" d="M103.9,82.6l66,20.1c0.8,0.3,1.5-0.2,1.5-1c0-0.8-0.6-1.7-1.5-1.9l-66-20.1c-0.8-0.3-1.5,0.2-1.5,1
		C102.4,81.5,103,82.3,103.9,82.6z"/>
	<path class="st0" d="M188.5,90.7L103.9,65c-0.8-0.3-1.5,0.2-1.5,1c0,0.8,0.6,1.7,1.5,1.9l84.6,25.7c0.8,0.3,1.5-0.2,1.5-1
		C190.1,91.8,189.3,91,188.5,90.7z"/>
	<path class="st0" d="M103.9,97l44,13.4c0.8,0.3,1.5-0.2,1.5-1c0-0.8-0.6-1.7-1.5-1.9l-44-13.4c-0.8-0.3-1.5,0.2-1.5,1
		C102.4,95.9,103,96.7,103.9,97z"/>
	<path class="st0" d="M178.2,131.1l-74.3-22.6c-0.8-0.3-1.5,0.2-1.5,1s0.6,1.7,1.5,1.9l74.3,22.6c0.8,0.3,1.5-0.2,1.5-1
		C179.9,132.2,179.3,131.4,178.2,131.1z"/>
	<path class="st0" d="M159.2,139.7l-55.3-16.8c-0.8-0.3-1.5,0.2-1.5,1c0,0.8,0.6,1.7,1.5,1.9l55.3,16.8c0.8,0.3,1.5-0.2,1.5-1
		C160.6,140.8,160,140,159.2,139.7z"/>
	<path class="st0" d="M131.5,145.8l-27.6-8.4c-0.8-0.3-1.5,0.2-1.5,1c0,0.8,0.6,1.7,1.5,1.9l27.6,8.4c0.8,0.3,1.5-0.2,1.5-1
		S132.3,146,131.5,145.8z"/>
	<path class="st0" d="M103.9,39.1l67,20.4c0.8,0.3,1.5-0.2,1.5-1c0-0.8-0.6-1.7-1.5-1.9l-67-20.4c-0.8-0.3-1.5,0.2-1.5,1
		C102.4,38,103,38.8,103.9,39.1z"/>
	<path class="st0" d="M103.9,53.5l17.2,5.2c0.8,0.3,1.5-0.2,1.5-1c0-0.8-0.6-1.7-1.5-1.9l-17.2-5.2c-0.8-0.3-1.5,0.2-1.5,1
		C102.4,52.4,103,53.2,103.9,53.5z"/>
	<path class="st0" d="M131.5,59c-0.8-0.3-1.5,0.2-1.5,1c0,0.8,0.6,1.7,1.5,1.9l32.7,9.9c0.8,0.3,1.5-0.2,1.5-1
		c0-0.8-0.6-1.7-1.5-1.9L131.5,59z"/>
	<path class="st0" d="M209,183.8V58.2l0,0c0-0.2,0-0.2,0-0.4c0,0,0,0,0-0.2c0-0.2-0.2-0.3-0.2-0.5l-21.4-27.8
		c-0.2-0.3-0.2-0.3-0.4-0.3c0,0,0,0-0.2-0.1c-0.2-0.1-0.2-0.1-0.4-0.1l0,0L92.6,0.3c-3.1-1-5.7,0.8-5.7,4.1v51.9l-81-24.6
		c-3.1-1-5.9,0.7-5.9,3.9v142.7c0,3.3,2.7,7.1,6.3,8.2L116,219.7c3.4,1,6.3-0.8,6.3-4.4v-51.7l80.2,24.4
		C206.3,189.2,209,187.1,209,183.8z M187.8,34.2L203.8,55l-12.6-3.8c-1.9-0.6-3.6-2.5-3.6-4.6V34.2L187.8,34.2z M119.4,214.3
		c0,1.7-1.5,2.7-3.1,2.2L6.5,183.1c-1.7-0.5-3.1-2.4-3.1-4.1V36.3c0-1.5,1.3-2.3,2.7-1.9L86.9,59v87.4c0,3.3,2.7,7.1,6.3,8.2l26.4,8
		v51.7L119.4,214.3z M121,160.2L93,151.6c-1.7-0.5-3.1-2.4-3.1-4.1V4.9c0-1.5,1.3-2.3,2.7-1.9l92.1,28v14.6c0,3.6,2.9,7.4,6.5,8.5
		l14.7,4.5v124.1c0,1.7-1.5,2.7-3.1,2.2L121,160V160.2z"/>
</g>
</svg>
