<?xml version="1.0" encoding="utf-8"?>
<!-- Generator: Adobe Illustrator 19.0.0, SVG Export Plug-In . SVG Version: 6.00 Build 0)  -->
<svg version="1.1" id="Слой_1" xmlns="http://www.w3.org/2000/svg" xmlns:xlink="http://www.w3.org/1999/xlink" x="0px" y="0px"
	 viewBox="0 0 11 11" style="enable-background:new 0 0 11 11;" xml:space="preserve">
<style type="text/css">
	.st0{fill:#666666;}
</style>
<g id="XMLID_68_">
	<path id="XMLID_71_" class="st0" d="M5.5,11C2.5,11,0,8.7,0,5.8c0-1.1,0.4-2.2,1-3C1.8,1.7,2.6,1.9,1.7,3C1.1,3.8,0.7,4.8,0.7,5.8
		c0,2.5,2.1,4.6,4.8,4.6c2.6,0,4.8-2.1,4.8-4.6c0-1-0.3-1.9-0.9-2.6C8.5,2,8.8,1.3,10,2.7c0.7,0.9,1,1.9,1,3C11,8.7,8.6,11,5.5,11z"
		/>
	<path id="XMLID_69_" class="st0" d="M5.5,6.2c-0.2,0-0.4-0.2-0.4-0.4V0.4C5.2,0.2,5.3,0,5.5,0s0.4,0.2,0.4,0.4v5.5
		C5.9,6.1,5.7,6.2,5.5,6.2z"/>
</g>
</svg>
