<svg xmlns="http://www.w3.org/2000/svg" width="15.969" height="16" viewBox="0 0 15.969 16">
  <metadata><?xpacket begin="﻿" id="W5M0MpCehiHzreSzNTczkc9d"?>
<x:xmpmeta xmlns:x="adobe:ns:meta/" x:xmptk="Adobe XMP Core 5.6-c138 79.159824, 2016/09/14-01:09:01        ">
   <rdf:RDF xmlns:rdf="http://www.w3.org/1999/02/22-rdf-syntax-ns#">
      <rdf:Description rdf:about=""/>
   </rdf:RDF>
</x:xmpmeta>
                                                                                                    
                                                                                                    
                                                                                                    
                                                                                                    
                                                                                                    
                                                                                                    
                                                                                                    
                                                                                                    
                                                                                                    
                                                                                                    
                                                                                                    
                                                                                                    
                                                                                                    
                                                                                                    
                                                                                                    
                                                                                                    
                                                                                                    
                                                                                                    
                                                                                                    
                                                                                                    
                           
<?xpacket end="w"?></metadata>
<defs>
    <style>
      .cls-1 {
        fill: #4f4f4f;
        fill-rule: evenodd;
      }
    </style>
  </defs>
  <path id="Фигура_12" data-name="Фигура 12" class="cls-1" d="M334.913,49.921a5.822,5.822,0,0,0,2.3-.472,5.987,5.987,0,0,0,1.878-9.7A5.846,5.846,0,0,0,334.91,38H334.9a5.793,5.793,0,0,0-2.289.469,5.986,5.986,0,0,0-3.143,7.81,5.9,5.9,0,0,0,5.445,3.642h0Zm0-10.8a4.84,4.84,0,1,1-4.8,4.84,4.824,4.824,0,0,1,4.8-4.84h0ZM344.466,54a0.507,0.507,0,0,0,.364-0.144,0.62,0.62,0,0,0-.069-0.861l-3.682-3.715a0.7,0.7,0,0,0-.49-0.213,0.509,0.509,0,0,0-.364.144,0.517,0.517,0,0,0-.143.367,0.707,0.707,0,0,0,.212.493l3.683,3.715A0.7,0.7,0,0,0,344.466,54Z" transform="translate(-329 -38)"/>
</svg>
