<svg xmlns="http://www.w3.org/2000/svg" width="13.062" height="13.28" viewBox="0 0 13.062 13.28">
  <metadata><?xpacket begin="﻿" id="W5M0MpCehiHzreSzNTczkc9d"?>
<x:xmpmeta xmlns:x="adobe:ns:meta/" x:xmptk="Adobe XMP Core 5.6-c138 79.159824, 2016/09/14-01:09:01        ">
   <rdf:RDF xmlns:rdf="http://www.w3.org/1999/02/22-rdf-syntax-ns#">
      <rdf:Description rdf:about=""/>
   </rdf:RDF>
</x:xmpmeta>
                                                                                                    
                                                                                                    
                                                                                                    
                                                                                                    
                                                                                                    
                                                                                                    
                                                                                                    
                                                                                                    
                                                                                                    
                                                                                                    
                                                                                                    
                                                                                                    
                                                                                                    
                                                                                                    
                                                                                                    
                                                                                                    
                                                                                                    
                                                                                                    
                                                                                                    
                                                                                                    
                           
<?xpacket end="w"?></metadata>
<defs>
    <style>
      .cls-1 {
        fill: #001871;
        fill-rule: evenodd;
      }
    </style>
  </defs>
  <path id="Фигура_34" data-name="Фигура 34" class="cls-1" d="M465.81,1494.43l0.134-.02a0.5,0.5,0,0,0,.4-0.56,0.463,0.463,0,0,0-.544-0.4l-1.286.22a0.5,0.5,0,0,0-.282.16s-0.008.01-.012,0.01q-0.021.03-.039,0.06s-0.009.01-.013,0.01a0.038,0.038,0,0,1-.008.02,0.131,0.131,0,0,0-.016.04,0.492,0.492,0,0,0-.023.06s0,0.01,0,.01a0.482,0.482,0,0,0,0,.25l0.179,1.23a0.486,0.486,0,0,0,.231.35,0.475,0.475,0,0,0,.313.05,0.492,0.492,0,0,0,.405-0.56l-0.022-.14a5.651,5.651,0,0,1,1.072,7.05,5.712,5.712,0,0,1-5.763,2.82,0.491,0.491,0,0,0-.554.41,0.469,0.469,0,0,0,.228.49,0.452,0.452,0,0,0,.162.06A6.709,6.709,0,0,0,465.81,1494.43Zm-6.959,10.59c0.006-.01.012-0.03,0.017-0.04a0.248,0.248,0,0,1,.009-0.04q0.006-.03.009-0.06c0-.01,0-0.02,0-0.03a0.547,0.547,0,0,0,0-.07,0.034,0.034,0,0,1,0-.01l-0.189-1.3a0.477,0.477,0,0,0-.544-0.4,0.5,0.5,0,0,0-.405.56l0.023,0.16a5.727,5.727,0,0,1,4.723-9.87,0.5,0.5,0,0,0,.557-0.41,0.47,0.47,0,0,0-.387-0.55,6.708,6.708,0,0,0-5.48,11.61l-0.128.02a0.5,0.5,0,0,0-.4.56,0.466,0.466,0,0,0,.23.34,0.478,0.478,0,0,0,.313.06l1.286-.22c0.013,0,.025-0.01.038-0.01s0.016-.01.023-0.01,0.043-.01.064-0.02a0.026,0.026,0,0,1,.024-0.01,0.22,0.22,0,0,1,.054-0.04c0.009-.01.018-0.01,0.026-0.02s0.029-.03.043-0.04l0.025-.03c0.012-.01.023-0.03,0.033-0.04a0.034,0.034,0,0,1,.014-0.02,0.038,0.038,0,0,1,.008-0.02C458.838,1505.05,458.845,1505.04,458.851,1505.02Z" transform="translate(-454.969 -1492.88)"/>
</svg>
