<svg xmlns="http://www.w3.org/2000/svg" width="36" height="30" viewBox="0 0 36 30">
  <metadata><?xpacket begin="﻿" id="W5M0MpCehiHzreSzNTczkc9d"?>
<x:xmpmeta xmlns:x="adobe:ns:meta/" x:xmptk="Adobe XMP Core 5.6-c138 79.159824, 2016/09/14-01:09:01        ">
   <rdf:RDF xmlns:rdf="http://www.w3.org/1999/02/22-rdf-syntax-ns#">
      <rdf:Description rdf:about=""/>
   </rdf:RDF>
</x:xmpmeta>
                                                                                                    
                                                                                                    
                                                                                                    
                                                                                                    
                                                                                                    
                                                                                                    
                                                                                                    
                                                                                                    
                                                                                                    
                                                                                                    
                                                                                                    
                                                                                                    
                                                                                                    
                                                                                                    
                                                                                                    
                                                                                                    
                                                                                                    
                                                                                                    
                                                                                                    
                                                                                                    
                           
<?xpacket end="w"?></metadata>
<defs>
    <style>
      .cls-1 {
        fill: #b2b2b2;
        fill-rule: evenodd;
      }
    </style>
  </defs>
  <path id="Фигура_23" data-name="Фигура 23" class="cls-1" d="M65.545,148H34.455A2.416,2.416,0,0,0,32,150.368v25.264A2.416,2.416,0,0,0,34.455,178H65.545A2.416,2.416,0,0,0,68,175.632V150.368A2.416,2.416,0,0,0,65.545,148Zm0.818,27.632a0.8,0.8,0,0,1-.818.789H34.455a0.8,0.8,0,0,1-.818-0.789V154.316H66.364v21.316Zm0-22.9H33.636v-2.369a0.8,0.8,0,0,1,.818-0.789H65.545a0.8,0.8,0,0,1,.818.789v2.369Zm-30.273-2.369a0.79,0.79,0,1,1-.818.79A0.8,0.8,0,0,1,36.091,150.368Zm3.273,0a0.79,0.79,0,1,1-.818.79A0.8,0.8,0,0,1,39.364,150.368Zm3.273,0a0.79,0.79,0,1,1-.818.79A0.8,0.8,0,0,1,42.636,150.368Zm-4.091,13.421h4.909A0.8,0.8,0,0,0,44.273,163v-4.737a0.8,0.8,0,0,0-.818-0.79H38.545a0.8,0.8,0,0,0-.818.79V163A0.8,0.8,0,0,0,38.545,163.789Zm0.818-4.736h3.273v3.157H39.364v-3.157Zm7.364,0h9a0.79,0.79,0,1,0,0-1.58h-9A0.79,0.79,0,1,0,46.727,159.053Zm0,2.368h6.546a0.79,0.79,0,1,0,0-1.579H46.727A0.79,0.79,0,1,0,46.727,161.421Zm11.455-2.368h3.273a0.79,0.79,0,1,0,0-1.58H58.182A0.79,0.79,0,1,0,58.182,159.053Zm-11.455,4.736h4.909a0.79,0.79,0,1,0,0-1.579H46.727A0.79,0.79,0,1,0,46.727,163.789Zm-8.182,9.474h4.909a0.8,0.8,0,0,0,.818-0.789v-4.737a0.8,0.8,0,0,0-.818-0.79H38.545a0.8,0.8,0,0,0-.818.79v4.737A0.8,0.8,0,0,0,38.545,173.263Zm0.818-4.737h3.273v3.158H39.364v-3.158ZM59,160.632a0.8,0.8,0,0,0-.818-0.79H55.727a0.79,0.79,0,1,0,0,1.579h2.455A0.8,0.8,0,0,0,59,160.632Zm-12.273,7.894h9a0.79,0.79,0,1,0,0-1.579h-9A0.79,0.79,0,1,0,46.727,168.526Zm0,2.369h6.546a0.79,0.79,0,1,0,0-1.579H46.727A0.79,0.79,0,1,0,46.727,170.9Zm14.727-3.948H58.182a0.79,0.79,0,1,0,0,1.579h3.273A0.79,0.79,0,1,0,61.455,166.947Zm-3.273,2.369H55.727a0.79,0.79,0,1,0,0,1.579h2.455A0.79,0.79,0,1,0,58.182,169.316Zm-11.455,3.947h4.909a0.79,0.79,0,1,0,0-1.579H46.727A0.79,0.79,0,1,0,46.727,173.263Z" transform="translate(-32 -148)"/>
</svg>
