<svg xmlns="http://www.w3.org/2000/svg" width="12" height="12" viewBox="0 0 12 12">
  <metadata><?xpacket begin="﻿" id="W5M0MpCehiHzreSzNTczkc9d"?>
<x:xmpmeta xmlns:x="adobe:ns:meta/" x:xmptk="Adobe XMP Core 5.6-c138 79.159824, 2016/09/14-01:09:01        ">
   <rdf:RDF xmlns:rdf="http://www.w3.org/1999/02/22-rdf-syntax-ns#">
      <rdf:Description rdf:about=""/>
   </rdf:RDF>
</x:xmpmeta>
                                                                                                    
                                                                                                    
                                                                                                    
                                                                                                    
                                                                                                    
                                                                                                    
                                                                                                    
                                                                                                    
                                                                                                    
                                                                                                    
                                                                                                    
                                                                                                    
                                                                                                    
                                                                                                    
                                                                                                    
                                                                                                    
                                                                                                    
                                                                                                    
                                                                                                    
                                                                                                    
                           
<?xpacket end="w"?></metadata>
<defs>
    <style>
      .cls-1 {
        fill: #19108b;
        fill-rule: evenodd;
      }
    </style>
  </defs>
  <path id="Фигура_5" data-name="Фигура 5" class="cls-1" d="M1239,50.933a5.658,5.658,0,0,1,.13-0.939,5.824,5.824,0,0,1,3.45-4.091,6.222,6.222,0,0,1,1.88-.466,7.976,7.976,0,0,1,1.08,0,6.159,6.159,0,0,1,3.05,1.12,5.735,5.735,0,0,1,2.28,3.438,5.658,5.658,0,0,1,.13.939V51h-0.8l-0.01-.122a4.945,4.945,0,0,0-.08-0.61c-0.02-.11-0.04-0.216-0.04-0.236a5.792,5.792,0,0,0-.24-0.721,4.584,4.584,0,0,0-.34-0.674c-0.01-.018-0.03-0.05-0.04-0.071a5.332,5.332,0,0,0-.73-0.919,5.255,5.255,0,0,0-1.06-.8c-0.01-.008-0.04-0.024-0.06-0.036a5.085,5.085,0,0,0-.7-0.326,5.923,5.923,0,0,0-.75-0.225l-0.25-.044a5.981,5.981,0,0,0-1.83,0l-0.25.044a6.454,6.454,0,0,0-.75.225,5.652,5.652,0,0,0-.7.326l-0.07.043a5.484,5.484,0,0,0-.96.706,5.091,5.091,0,0,0-.82,1.014,0.661,0.661,0,0,0-.04.059,4.5,4.5,0,0,0-.34.674,5.487,5.487,0,0,0-.23.721,2.021,2.021,0,0,0-.05.236,4.945,4.945,0,0,0-.08.61V51H1239V50.933h0Zm5.74-6.355a3.061,3.061,0,0,1-1.27-.41,2.953,2.953,0,0,1-.94-0.9,2.726,2.726,0,0,1,.41-3.454,2.968,2.968,0,0,1,1.87-.815,3.019,3.019,0,0,1,1.72.414,2.954,2.954,0,0,1,.94.9,2.722,2.722,0,0,1-.16,3.177,3.407,3.407,0,0,1-.54.523,3.038,3.038,0,0,1-2.03.565h0Zm0.67-.75a2.368,2.368,0,0,0,.84-0.347,2.715,2.715,0,0,0,.5-0.479,2.367,2.367,0,0,0,.36-0.815,2.506,2.506,0,0,0,0-.773,2.368,2.368,0,0,0-.36-0.815,2.709,2.709,0,0,0-.5-0.479,2.391,2.391,0,0,0-.85-0.349,2.871,2.871,0,0,0-.8,0,2.391,2.391,0,0,0-.85.349,2.709,2.709,0,0,0-.5.479,2.368,2.368,0,0,0-.36.815,2.506,2.506,0,0,0,0,.773,1.931,1.931,0,0,0,.19.533,2.093,2.093,0,0,0,.4.538,2,2,0,0,0,.56.388,2.328,2.328,0,0,0,.71.207A3.06,3.06,0,0,0,1245.41,43.828Z" transform="translate(-1239 -39)"/>
</svg>
